<?xml version="1.0" encoding="iso-8859-1"?>
<!-- Generator: Adobe Illustrator 19.0.0, SVG Export Plug-In . SVG Version: 6.00 Build 0)  -->
<svg version="1.1" id="Layer_1" xmlns="http://www.w3.org/2000/svg" xmlns:xlink="http://www.w3.org/1999/xlink" x="0px" y="0px"
	 viewBox="0 0 512 512" style="enable-background:new 0 0 512 512;" xml:space="preserve">
<path style="fill:#AA6100;" d="M506.435,378.435v-50.087c0-27.619-22.468-50.087-50.087-50.087h-33.391
	c-9.217,0-16.696,7.473-16.696,16.696v83.478H506.435z"/>
<path style="fill:#77604B;" d="M406.261,345.043v116.87c0,9.223,7.479,16.696,16.696,16.696h33.391
	c27.619,0,50.087-22.468,50.087-50.087v-83.478H406.261z"/>
<path style="fill:#CC7400;" d="M105.739,378.435v-83.478c0-9.223-7.479-16.696-16.696-16.696H55.652
	c-27.619,0-50.087,22.468-50.087,50.087v50.087H105.739z"/>
<path style="fill:#816952;" d="M5.565,345.043v83.478c0,27.619,22.468,50.087,50.087,50.087h33.391
	c9.217,0,16.696-7.473,16.696-16.696v-116.87H5.565z"/>
<path style="fill:#957856;" d="M422.957,100.174H89.043c-9.22,0-16.696,7.475-16.696,16.696v294.957h367.304V116.87
	C439.652,107.649,432.177,100.174,422.957,100.174z"/>
<path style="fill:#816952;" d="M422.957,100.174H256v311.652h183.652V116.87C439.652,107.649,432.177,100.174,422.957,100.174z"/>
<path style="fill:#957856;" d="M389.565,512h-267.13c-27.662,0-50.087-22.424-50.087-50.087v-83.478h367.304v83.478
	C439.652,489.576,417.228,512,389.565,512z"/>
<path style="fill:#816952;" d="M256,512h133.565c27.664,0,50.087-22.424,50.087-50.087v-83.478H256V512z"/>
<rect x="72.348" y="378.435" style="fill:#696B6F;" width="367.304" height="33.391"/>
<rect x="256" y="378.435" style="fill:#616267;" width="183.652" height="33.391"/>
<path style="fill:#FFA733;" d="M422.957,100.174H89.043c-9.217,0-16.696,7.473-16.696,16.696v66.783
	c0,64.441,52.424,116.87,116.87,116.87c64.157,0,69.408,0,133.565,0c64.445,0,116.87-52.429,116.87-116.87V116.87
	C439.652,107.647,432.174,100.174,422.957,100.174z"/>
<path style="fill:#CC7400;" d="M422.957,100.174H256v200.348c17.352,0,34.704,0,66.783,0c64.445,0,116.87-52.429,116.87-116.87
	V116.87C439.652,107.647,432.174,100.174,422.957,100.174z"/>
<path style="fill:#FFE477;" d="M289.391,333.913h-66.783c-9.217,0-16.696-7.473-16.696-16.696v-66.783
	c0-9.223,7.479-16.696,16.696-16.696h66.783c9.217,0,16.696,7.473,16.696,16.696v66.783
	C306.087,326.44,298.608,333.913,289.391,333.913z"/>
<path style="fill:#FFB655;" d="M289.391,233.739H256v100.174h33.391c9.217,0,16.696-7.473,16.696-16.696v-66.783
	C306.087,241.212,298.608,233.739,289.391,233.739z"/>
<path style="fill:#5AAAE7;" d="M172.522,0H55.652C28.033,0,5.565,22.468,5.565,50.087v33.391c0,27.619,22.468,50.087,50.087,50.087
	h116.87V0z"/>
<path style="fill:#1E81CE;" d="M456.348,0h-116.87v133.565h116.87c27.619,0,50.087-22.468,50.087-50.087V50.087
	C506.435,22.468,483.967,0,456.348,0z"/>
<rect x="139.13" style="fill:#96C8EF;" width="233.739" height="133.565"/>
<rect x="256" style="fill:#5AAAE7;" width="116.87" height="133.565"/>
<path style="fill:#B7B9C4;" d="M322.783,445.217c-9.217,0-16.696-7.473-16.696-16.696V395.13c0-9.223,7.479-16.696,16.696-16.696
	s16.696,7.473,16.696,16.696v33.391C339.478,437.744,332,445.217,322.783,445.217z"/>
<g>
</g>
<g>
</g>
<g>
</g>
<g>
</g>
<g>
</g>
<g>
</g>
<g>
</g>
<g>
</g>
<g>
</g>
<g>
</g>
<g>
</g>
<g>
</g>
<g>
</g>
<g>
</g>
<g>
</g>
</svg>
